<svg xmlns="http://www.w3.org/2000/svg" viewBox="0 0 190 100" aria-label="United States flag">
  <title>United States flag</title>
  <defs>
    <path id="us-star" fill="#fff" d="M0,-2.2 .65,-.65 2.1,-.65 1.05,.4 1.3,2.2 0,1.35-1.3,2.2-1.05,.4-2.1,-.65-.65,-.65z"/>
  </defs>
  <g>
    <rect y="0" width="190" height="7.6923077" fill="#B22234"/>
    <rect y="7.6923077" width="190" height="7.6923077" fill="#FFFFFF"/>
    <rect y="15.3846154" width="190" height="7.6923077" fill="#B22234"/>
    <rect y="23.0769231" width="190" height="7.6923077" fill="#FFFFFF"/>
    <rect y="30.7692308" width="190" height="7.6923077" fill="#B22234"/>
    <rect y="38.4615385" width="190" height="7.6923077" fill="#FFFFFF"/>
    <rect y="46.1538462" width="190" height="7.6923077" fill="#B22234"/>
    <rect y="53.8461539" width="190" height="7.6923077" fill="#FFFFFF"/>
    <rect y="61.5384616" width="190" height="7.6923077" fill="#B22234"/>
    <rect y="69.2307693" width="190" height="7.6923077" fill="#FFFFFF"/>
    <rect y="76.923077" width="190" height="7.6923077" fill="#B22234"/>
    <rect y="84.6153847" width="190" height="7.6923077" fill="#FFFFFF"/>
    <rect y="92.3076924" width="190" height="7.6923076" fill="#B22234"/>
  </g>
  <rect width="76" height="53.8461539" fill="#3C3B6E"/>
  <g fill="#fff">
    <g transform="translate(10,10)"><use href="#us-star"/></g>
    <g transform="translate(26,10)"><use href="#us-star"/></g>
    <g transform="translate(42,10)"><use href="#us-star"/></g>
    <g transform="translate(58,10)"><use href="#us-star"/></g>
    <g transform="translate(18,22)"><use href="#us-star"/></g>
    <g transform="translate(34,22)"><use href="#us-star"/></g>
    <g transform="translate(50,22)"><use href="#us-star"/></g>
    <g transform="translate(10,34)"><use href="#us-star"/></g>
    <g transform="translate(26,34)"><use href="#us-star"/></g>
    <g transform="translate(42,34)"><use href="#us-star"/></g>
    <g transform="translate(58,34)"><use href="#us-star"/></g>
    <g transform="translate(18,46)"><use href="#us-star"/></g>
    <g transform="translate(34,46)"><use href="#us-star"/></g>
    <g transform="translate(50,46)"><use href="#us-star"/></g>
  </g>
</svg>
